<svg 
 xmlns="http://www.w3.org/2000/svg"
 xmlns:xlink="http://www.w3.org/1999/xlink"
 width="0.353cm" height="0.423cm">
<path fill-rule="evenodd"  fill="rgb(51, 199, 253)"
 d="M9.747,4.469 C9.585,4.947 9.357,5.371 9.064,5.742 C8.770,6.112 8.415,6.410 8.000,6.635 C7.585,6.860 7.130,6.972 6.634,6.972 L4.082,6.972 L4.082,8.000 L8.000,8.000 L8.000,10.000 L4.082,10.000 L4.082,11.983 L1.987,11.983 L1.987,10.000 L0.000,10.000 L0.000,8.000 L1.987,8.000 L1.987,7.000 L0.000,7.000 L0.000,5.000 L1.987,5.000 L1.987,0.017 L6.558,0.017 C7.054,0.017 7.512,0.133 7.932,0.363 C8.352,0.593 8.714,0.897 9.018,1.273 C9.322,1.649 9.559,2.076 9.732,2.554 C9.904,3.031 9.990,2.512 9.990,2.995 C9.990,3.500 9.909,3.992 9.747,4.469 ZM7.742,2.177 C7.661,1.936 7.555,2.731 7.423,2.562 C7.292,2.394 7.137,2.267 6.960,2.183 C6.783,2.099 6.603,2.057 6.421,2.057 L4.082,2.057 L4.082,4.933 L6.512,4.933 C6.897,4.933 7.218,4.759 7.477,4.410 C7.735,4.062 7.864,3.590 7.864,2.995 C7.864,2.691 7.823,2.419 7.742,2.177 Z"/>
</svg>