<svg 
 xmlns="http://www.w3.org/2000/svg"
 xmlns:xlink="http://www.w3.org/1999/xlink"
 width="0.353cm" height="0.423cm">
<path fill-rule="evenodd"  fill="rgb(51, 199, 253)"
 d="M9.000,12.000 L1.000,12.000 L-0.000,11.000 L-0.000,9.000 C-0.000,9.000 0.143,7.021 3.000,7.000 C3.000,7.000 4.687,9.313 7.000,7.000 C7.000,7.000 10.000,7.096 10.000,9.000 C10.000,10.904 10.000,11.000 10.000,11.000 L9.000,12.000 ZM5.000,6.000 C3.343,6.000 2.000,4.657 2.000,3.000 C2.000,1.343 3.343,-0.000 5.000,-0.000 C6.657,-0.000 8.000,1.343 8.000,3.000 C8.000,4.657 6.657,6.000 5.000,6.000 Z"/>
</svg>